<svg width="74" height="72" viewBox="0 0 74 72" fill="none" xmlns="http://www.w3.org/2000/svg">
<path d="M72.5432 25.7051L70.6417 25.7967C71.5312 28.9057 72.1999 32.7292 72.1999 36C72.1999 40.6115 71.3163 45.0855 69.5759 49.2969C67.8953 53.3648 65.4862 57.0173 62.4204 60.1537C59.3546 63.2901 55.7814 65.7547 51.8081 67.474C47.6915 69.2545 43.3182 70.1585 38.8105 70.1585C34.3029 70.1585 29.9296 69.2545 25.813 67.474C21.8367 65.7547 18.2664 63.2901 15.2006 60.1537C12.1348 57.0173 9.72576 53.3617 8.0451 49.2969C6.30473 45.0855 5.42111 40.6115 5.42111 36C5.42111 31.3885 6.30473 26.9145 8.0451 22.7031C9.72576 18.6352 12.1348 14.9827 15.2006 11.8463C18.2664 8.70988 21.8397 6.24533 25.813 4.52596C29.9296 2.7455 34.3029 1.84153 38.8105 1.84153C45.6765 1.84153 52.2737 3.95792 57.8829 7.9586C63.0055 11.6111 66.9818 16.583 69.4476 22.3946H55.9217V24.2362H72.1014L71.6268 22.9841C69.0894 16.2898 64.6922 10.5728 58.9098 6.44995C52.9992 2.22939 46.0466 0 38.8105 0C34.0611 0 29.4519 0.952834 25.1144 2.82796C20.9232 4.64201 17.1619 7.23787 13.9289 10.5422C10.6989 13.8466 8.16152 17.6977 6.38831 21.9854C4.55242 26.4228 3.62402 31.1381 3.62402 35.9969C3.62402 40.8558 4.5554 45.5711 6.38831 50.0085C8.16152 54.2962 10.6989 58.1442 13.9289 61.4516C17.1589 64.756 20.9232 67.3519 25.1144 69.1659C29.4519 71.0441 34.0611 71.9939 38.8105 71.9939C43.56 71.9939 48.1691 71.0411 52.5066 69.1659C56.6978 67.3519 60.4592 64.756 63.6921 61.4516C66.9221 58.1473 69.4595 54.2962 71.2327 50.0085C73.0686 45.5711 73.997 40.8558 73.997 35.9969C73.997 32.5521 73.4776 28.979 72.5402 25.7051H72.5432Z" fill="#12112E"/>
<path d="M55.4649 21.0356H49.2109C48.9602 21.0356 48.7542 21.2433 48.7542 21.5029V24.8928C48.7542 25.1493 48.9602 25.36 49.2109 25.36H55.4649C55.6321 25.36 55.7784 25.2654 55.859 25.1279C55.8858 25.0821 55.9038 25.0333 55.9157 24.9783C55.9217 24.9508 55.9246 24.9203 55.9246 24.8928V21.5029C55.9246 21.5029 55.9246 21.4785 55.9217 21.4632C55.9008 21.2219 55.7067 21.0356 55.4679 21.0356H55.4649Z" fill="#12112E"/>
<path d="M63.6235 21.118C56.7127 9.25342 42.0912 3.14246 27.9593 8.74036C18.3918 12.5303 10.1646 24.2911 9.7586 34.7784C8.88991 57.2127 30.9983 72.6229 51.3334 63.0427C60.0412 58.9382 66.131 50.5429 67.4176 40.8221C68.1639 35.1906 67.4385 29.9531 65.6534 25.3416H57.1516V25.7356C57.1516 25.9891 56.9515 26.1968 56.7008 26.1968H48.1064C47.8586 26.1968 47.6556 25.9921 47.6556 25.7356V20.5164C47.6556 20.2629 47.8557 20.0553 48.1064 20.0553H56.7008C56.9486 20.0553 57.1516 20.2599 57.1516 20.5164V21.118H63.6235ZM23.7024 55.0719C19.6187 51.7248 17.0544 46.9484 16.4813 41.6284L18.6604 41.3841C19.1679 46.1085 21.4456 50.3505 25.0726 53.322C28.6997 56.2965 33.2401 57.6464 37.8582 57.1241L38.0971 59.3566C32.8939 59.9429 27.7832 58.4221 23.6995 55.0749L23.7024 55.0719ZM22.1949 40.2938L24.81 39.9976C25.5354 46.7376 31.4669 51.6026 38.0553 50.8605L38.3448 53.5357C30.3236 54.4397 23.0785 48.4998 22.1949 40.2907V40.2938ZM47.8318 38.1163C47.3929 40.813 45.76 43.1676 43.4167 44.4808C36.3597 48.4417 28.2937 42.5873 29.6161 34.4638C30.0549 31.7672 31.6878 29.4126 34.0312 28.0994C41.0882 24.1384 49.1542 29.9928 47.8318 38.1163Z" fill="#12112E"/>
<path d="M3.97032 55.472C3.94643 55.2918 3.92255 55.1116 3.89867 54.9314C3.80315 54.5864 3.63299 54.2901 3.3882 54.0366C3.25387 53.9298 3.11954 53.8259 2.9852 53.719C2.67474 53.5358 2.34338 53.4442 1.98516 53.4411C1.71351 53.432 1.45678 53.49 1.22095 53.6152C0.976165 53.6977 0.761231 53.8381 0.58212 54.0336C0.388082 54.2168 0.250763 54.4367 0.173148 54.6871C0.0477697 54.9284 -0.00894896 55.191 0.00299182 55.4689C0.0268734 55.6491 0.0507549 55.8293 0.0746365 56.0095C0.170163 56.3546 0.340319 56.6508 0.585105 56.9043C0.719439 57.0112 0.853772 57.115 0.988106 57.2219C1.29857 57.4052 1.62992 57.4968 1.98815 57.4998C2.26278 57.509 2.51653 57.451 2.75236 57.3258C2.99714 57.2433 3.21208 57.1028 3.39119 56.9074C3.58523 56.7241 3.72254 56.5042 3.80016 56.2538C3.92554 56.0125 3.98226 55.7499 3.97032 55.472Z" fill="#12112E"/>
</svg>
