<svg width="75" height="82" viewBox="0 0 75 82" fill="none" xmlns="http://www.w3.org/2000/svg">
<path d="M59.2454 51.831C57.3069 51.831 55.7386 50.2587 55.7386 48.3242V33.6721C55.7386 31.7336 57.3109 30.1653 59.2454 30.1653C61.1839 30.1653 62.7522 31.7376 62.7522 33.6721V48.3242C62.7522 50.2627 61.1799 51.831 59.2454 51.831Z" fill="#12112E"/>
<path d="M18.2266 58.124C20.1651 58.124 21.7334 56.5517 21.7334 54.6172V27.3789C21.7334 25.4404 20.1611 23.8721 18.2266 23.8721C16.2881 23.8721 14.7198 25.4444 14.7198 27.3789V54.6172C14.7198 56.5557 16.2921 58.124 18.2266 58.124Z" fill="#12112E"/>
<path d="M3.50679 48.2844C5.44528 48.2844 7.01359 46.7121 7.01359 44.7776V37.2187C7.01359 35.2802 5.4413 33.7119 3.50679 33.7119C1.56831 33.7119 0 35.2842 0 37.2187V44.7776C0 46.7161 1.57229 48.2844 3.50679 48.2844Z" fill="#12112E"/>
<path d="M45.2221 11.879H44.1315C42.4955 11.879 41.17 13.2044 41.17 14.8404V20.5206C41.17 22.0371 39.94 23.2711 38.4195 23.2711C36.899 23.2711 35.669 22.0411 35.669 20.5206V3.58763C35.669 1.67302 34.1684 0.0529727 32.2538 0.0012266C30.2755 -0.0505195 28.6514 1.54167 28.6514 3.50802V78.4085C28.6514 80.3231 30.1521 81.9432 32.0667 81.9949C34.045 82.0467 35.669 80.4545 35.669 78.4881V61.4716C35.669 59.9511 36.899 58.7211 38.4195 58.7211C39.94 58.7211 41.17 59.9511 41.17 61.4716V67.1518C41.17 68.7877 42.4955 70.1132 44.1315 70.1132H45.2221C46.8581 70.1132 48.1836 68.7877 48.1836 67.1518V14.8444C48.1836 13.2084 46.8581 11.8829 45.2221 11.8829V11.879ZM41.584 50.2706C41.584 51.616 40.4933 52.7027 39.1519 52.7027C37.8065 52.7027 36.7198 51.612 36.7198 50.2706V30.8618C36.7198 29.5164 37.8105 28.4297 39.1519 28.4297C40.4973 28.4297 41.584 29.5204 41.584 30.8618V50.2706Z" fill="#12112E"/>
<path d="M74.6657 41C74.6657 42.8151 73.1929 44.2879 71.3778 44.2879C69.5627 44.2879 68.09 42.8151 68.09 41C68.09 39.1849 69.5627 37.7122 71.3778 37.7122C73.1929 37.7122 74.6657 39.1849 74.6657 41Z" fill="#12112E"/>
</svg>
