<svg width="78" height="69" viewBox="0 0 78 69" fill="none" xmlns="http://www.w3.org/2000/svg">
<path d="M76.2138 0H1.78617C0.801488 0 0 0.799007 0 1.78065V67.2194C0 68.201 0.801488 69 1.78617 69H60.9741C61.9588 69 62.7603 68.201 62.7603 67.2194V44.0824C62.7603 43.1007 63.5618 42.3017 64.5465 42.3017H76.2138C77.1985 42.3017 78 41.5027 78 40.5211V1.78065C78 0.799007 77.1985 0 76.2138 0ZM57.5086 59.2521C57.5086 60.2337 56.7071 61.0328 55.7225 61.0328H7.85458C6.86989 61.0328 6.06841 60.2337 6.06841 59.2521V47.0387C6.06841 46.0571 6.86989 45.2581 7.85458 45.2581H55.7187C56.7033 45.2581 57.5048 46.0571 57.5048 47.0387V59.2521H57.5086ZM57.5086 39.3987C57.5086 40.3803 56.7071 41.1793 55.7225 41.1793H7.85458C6.86989 41.1793 6.06841 40.3803 6.06841 39.3987V27.1853C6.06841 26.2036 6.86989 25.4046 7.85458 25.4046H55.7187C56.7033 25.4046 57.5048 26.2036 57.5048 27.1853V39.3987H57.5086ZM57.5086 19.5452C57.5086 20.5269 56.7071 21.3259 55.7225 21.3259H7.85458C6.86989 21.3259 6.06841 20.5269 6.06841 19.5452V7.33184C6.06841 6.35021 6.86989 5.5512 7.85458 5.5512H55.7187C56.7033 5.5512 57.5048 6.35021 57.5048 7.33184V19.5452H57.5086Z" fill="#12112E"/>
<path d="M30.9183 18.2059H57.5086V28.4713H30.9183C29.9337 28.4713 29.1322 27.6723 29.1322 26.6906V19.9866C29.1322 19.0049 29.9337 18.2059 30.9183 18.2059Z" fill="#12112E"/>
<path d="M30.9183 38.5996H57.5086V48.865H30.9183C29.9337 48.865 29.1322 48.0659 29.1322 47.0843V40.3803C29.1322 39.3986 29.9337 38.5996 30.9183 38.5996Z" fill="#12112E"/>
</svg>
