<?xml version="1.0" encoding="UTF-8"?>
<svg id="Capa_2" data-name="Capa 2" xmlns="http://www.w3.org/2000/svg" xmlns:xlink="http://www.w3.org/1999/xlink" viewBox="0 0 156 149.7">
  <defs>
    <style>
      .cls-1 {
        fill: url(#Degradado_sin_nombre_11);
      }

      .cls-2 {
        fill: url(#Degradado_sin_nombre_11-2);
      }
    </style>
    <linearGradient id="Degradado_sin_nombre_11" data-name="Degradado sin nombre 11" x1="-15.42" y1="42.13" x2="164.45" y2="113.49" gradientUnits="userSpaceOnUse">
      <stop offset="0" stop-color="#485985"/>
      <stop offset="1" stop-color="#6f99af"/>
    </linearGradient>
    <linearGradient id="Degradado_sin_nombre_11-2" data-name="Degradado sin nombre 11" x1="-9.4" y1="26.96" x2="170.46" y2="98.31" xlink:href="#Degradado_sin_nombre_11"/>
  </defs>
  <g id="Capa_1-2" data-name="Capa 1">
    <g>
      <path class="cls-1" d="m87.6,112.89c.15,6.13,3.22,17.79,23.31,17.79,10.89,0,23-2.61,23-14.26,0-8.59-8.28-10.89-19.94-13.65l-11.81-2.76c-17.79-4.14-34.97-8.13-34.97-32.36,0-12.27,6.59-33.89,42.33-33.89,33.74,0,42.79,22.08,42.94,35.58h-22.08c-.61-4.91-2.45-16.56-22.54-16.56-8.74,0-19.17,3.22-19.17,13.19,0,8.59,7.05,10.43,11.66,11.5l26.84,6.59c15.03,3.68,28.83,9.82,28.83,29.6,0,33.13-33.74,36.04-43.4,36.04-40.18,0-47.08-23.16-47.08-36.81h22.08Z"/>
      <path class="cls-2" d="m56.29,110.12h-23V19.48H0V0h89.57v19.48h-33.28v90.64Z"/>
    </g>
  </g>
</svg>